<svg xmlns="http://www.w3.org/2000/svg" xmlns:xlink="http://www.w3.org/1999/xlink" width="1920" height="880" viewBox="0 0 1920 880"><defs><clipPath id="clip-path"><rect id="Rectangle_35" data-name="Rectangle 35" width="1920" height="880" fill="#9bcdff"></rect></clipPath></defs><g id="Groupe_2" data-name="Groupe 2" clip-path="url(#clip-path)"><g id="traits" transform="translate(2155.699 467.513) rotate(137)"><path id="Trac&#xE9;_50" data-name="Trac&#xE9; 50" d="M927.463,1213.5C798.62,1213.5,693.8,1108.677,693.8,979.834a233.783,233.783,0,0,1,29.746-114.173,3.115,3.115,0,0,1,5.434,3.049,227.539,227.539,0,0,0-28.949,111.124c0,125.408,102.026,227.434,227.434,227.434a3.115,3.115,0,0,1,0,6.23Z" transform="translate(-86.397 -138.765)" fill="#db0033"></path><path id="Trac&#xE9;_53" data-name="Trac&#xE9; 53" d="M530.6,611.424a2.636,2.636,0,0,1-2.134-4.181c99-136.888,275.114-199.171,438.226-154.983a2.636,2.636,0,1,1-1.379,5.089C804.3,413.73,630.462,475.21,532.734,610.333A2.633,2.633,0,0,1,530.6,611.424Z" transform="translate(-35.604 -8.117)" fill="#fff" opacity="0.05"></path><path id="Trac&#xE9;_55" data-name="Trac&#xE9; 55" d="M1549.411,889.737a5.6,5.6,0,0,1-5.518-6.566,529.721,529.721,0,0,0,7.956-91.533c0-289.306-235.369-524.674-524.675-524.674a5.6,5.6,0,0,1,0-11.192c295.478,0,535.867,240.388,535.867,535.866a540.954,540.954,0,0,1-8.125,93.471A5.6,5.6,0,0,1,1549.411,889.737Z" transform="translate(-186.107 49.43)" fill="#db0033"></path><path id="Trac&#xE9;_56" data-name="Trac&#xE9; 56" d="M20.1,819.868A13.421,13.421,0,0,1,6.827,808.3,718.243,718.243,0,0,1,0,709.492C0,318.278,318.276,0,709.49,0c148.474,0,290.659,45.379,411.182,131.231a13.419,13.419,0,0,1-15.571,21.86C989.15,70.5,852.35,26.841,709.49,26.841c-376.415,0-682.651,306.236-682.651,682.651a691.332,691.332,0,0,0,6.57,95.1A13.43,13.43,0,0,1,20.1,819.868Z" transform="translate(131.577 131.577)" fill="#fff" opacity="0.05"></path><g id="Groupe_243" data-name="Groupe 243"><path id="Trac&#xE9;_44" data-name="Trac&#xE9; 44" d="M1119.645,1071.262a1.917,1.917,0,0,1-1.438-3.184,174.066,174.066,0,0,0,43.472-115.16c0-96.088-78.173-174.262-174.261-174.262a173.383,173.383,0,0,0-97.43,29.76,1.917,1.917,0,1,1-2.146-3.177,177.2,177.2,0,0,1,99.577-30.418c98.2,0,178.1,79.893,178.1,178.1a177.9,177.9,0,0,1-44.429,117.7A1.913,1.913,0,0,1,1119.645,1071.262Z" transform="translate(-146.35 -111.849)" fill="#fff" opacity="0.15"></path><path id="Trac&#xE9;_45" data-name="Trac&#xE9; 45" d="M1155.235,1308.344a8.939,8.939,0,0,1-1.991-17.651c86.147-19.765,164.332-68.771,220.152-137.99a397.227,397.227,0,0,0-12.749-513.327,8.938,8.938,0,0,1,13.344-11.894,415.1,415.1,0,0,1,13.32,536.443c-58.325,72.325-140.032,123.533-230.069,144.191A8.96,8.96,0,0,1,1155.235,1308.344Z" transform="translate(-222.982 -62.49)" fill="#fff" opacity="0.05"></path><path id="Trac&#xE9;_49" data-name="Trac&#xE9; 49" d="M971.31,1328.157a280.193,280.193,0,0,1-125.179-29.124,7.124,7.124,0,1,1,6.311-12.774,266.067,266.067,0,0,0,118.868,27.65c132.641,0,244.214-94.884,265.3-225.614a7.124,7.124,0,0,1,14.067,2.269C1228.471,1228.235,1110.982,1328.157,971.31,1328.157Z" transform="translate(-130.244 -204.104)" fill="#fff" opacity="0.05"></path><path id="Trac&#xE9;_51" data-name="Trac&#xE9; 51" d="M570.793,984.892a5.753,5.753,0,0,1-5.49-4.045,331.849,331.849,0,1,1,648.674-98.664,5.751,5.751,0,1,1-11.5,0,320.294,320.294,0,1,0-626.189,95.248,5.755,5.755,0,0,1-5.493,7.461Z" transform="translate(-41.115 -41.115)" fill="#fff" opacity="0.15"></path><path id="Trac&#xE9;_52" data-name="Trac&#xE9; 52" d="M700.614,1412.563a7.893,7.893,0,0,1-2.8-.513c-160.05-60.538-267.584-216.216-267.584-387.386a7.908,7.908,0,1,1,15.816,0c0,164.634,103.427,314.368,257.364,372.593a7.909,7.909,0,0,1-2.8,15.306Z" transform="translate(-3.2 -183.596)" fill="#fff" opacity="0.3"></path><path id="Trac&#xE9;_54" data-name="Trac&#xE9; 54" d="M785.478,1453.381c-144.649,0-280.64-56.329-382.922-158.611S243.945,1056.5,243.945,911.848a542.819,542.819,0,0,1,61.56-251A11.263,11.263,0,1,1,325.457,671.3,520.206,520.206,0,0,0,266.47,911.848c0,138.633,53.986,268.967,152.014,366.994s228.362,152.014,366.995,152.014a516.7,516.7,0,0,0,188.331-35.222,11.263,11.263,0,1,1,8.177,20.989A539.121,539.121,0,0,1,785.478,1453.381Z" transform="translate(55.588 -70.78)" fill="#fff" opacity="0.15"></path><path id="Trac&#xE9;_57" data-name="Trac&#xE9; 57" d="M1018.673,1636a13.419,13.419,0,1,1,0-26.839c296.263,0,557.088-189.058,649.03-470.447a686.622,686.622,0,0,0,2.779-415.7,13.419,13.419,0,0,1,25.622-7.991,713.461,713.461,0,0,1-2.889,432.028C1597.656,1439.5,1326.579,1636,1018.673,1636Z" transform="translate(-177.607 -85.438)" fill="#fff" opacity="0.1"></path></g></g></g></svg>